<?xml version="1.0" encoding="iso-8859-1"?>
<!-- Generator: Adobe Illustrator 19.0.0, SVG Export Plug-In . SVG Version: 6.00 Build 0)  -->
<svg version="1.1" id="Capa_1" xmlns="http://www.w3.org/2000/svg" xmlns:xlink="http://www.w3.org/1999/xlink" x="0px" y="0px"
	 viewBox="0 0 511.999 511.999" style="enable-background:new 0 0 511.999 511.999;" xml:space="preserve">
<path style="fill:#FFDC64;" d="M412.599,140.051l-36.357-36.357H135.758l-36.357,36.357c-7.517,7.517-11.739,17.711-11.739,28.341
	v304.043c0,17.708,14.356,32.065,32.065,32.065h272.548c17.709,0,32.065-14.356,32.065-32.065V168.392
	C424.339,157.762,420.115,147.567,412.599,140.051z"/>
<path style="fill:#FFC850;" d="M412.599,140.051l-36.357-36.357H223.936h-88.177l-36.357,36.357
	c-0.135,0.135-0.227,0.302-0.36,0.439l0,0c-7.265,7.475-11.379,17.464-11.379,27.902v304.043c0,17.708,14.355,32.065,32.065,32.065
	h88.177c-17.709,0-32.065-14.356-32.065-32.065V168.392c0-10.63,4.223-20.825,11.739-28.341l1.899-1.9
	c3.001-3.001,6.664-5.031,10.562-6.124c6.627,0.669,10.429,2.601,15.919,5.465c8.783,4.587,19.719,10.29,40.002,10.29
	c20.275,0,31.203-5.707,39.987-10.29c6.865-3.581,11.007-5.742,21.457-5.742c10.459,0,14.608,2.161,21.473,5.746
	c8.791,4.583,19.727,10.286,40.01,10.286c16.007,0,26.156-3.554,34.061-7.306C412.819,140.344,412.73,140.182,412.599,140.051z"/>
<path style="fill:#826469;" d="M360.21,408.306H151.79c-8.854,0-16.032-7.178-16.032-16.032V207.903
	c0-8.854,7.178-16.032,16.032-16.032h208.42c8.854,0,16.032,7.178,16.032,16.032v184.371
	C376.242,401.129,369.064,408.306,360.21,408.306z"/>
<g>
	<path style="fill:#E4EAF8;" d="M207.903,336.161c-4.102,0-8.204-1.566-11.335-4.697c-6.263-6.263-6.263-16.408,0-22.671
		l24.048-24.048c6.263-6.263,16.408-6.263,22.671,0s6.263,16.408,0,22.671l-24.048,24.048
		C216.107,334.596,212.005,336.161,207.903,336.161z"/>
	<path style="fill:#E4EAF8;" d="M304.097,336.161c4.102,0,8.204-1.566,11.335-4.697c6.263-6.263,6.263-16.408,0-22.671
		l-24.048-24.048c-6.263-6.263-16.408-6.263-22.671,0s-6.263,16.408,0,22.671l24.048,24.048
		C295.893,334.596,299.995,336.161,304.097,336.161z"/>
</g>
<path style="fill:#6E555E;" d="M440.371,111.71l-64.129-64.129H135.758L71.629,111.71c30.712-0.001,30.713,16.032,61.425,16.032
	c30.721,0,30.721-16.032,61.441-16.032c30.731,0,30.731,16.032,61.463,16.032c30.721,0,30.721-16.032,61.443-16.032
	c30.743,0,30.743,16.032,61.485,16.032S409.628,111.71,440.371,111.71z"/>
<path style="fill:#5F4B55;" d="M400.29,80.146L376.242,47.58H135.758l-64.129,64.13c30.712-0.001,30.713,16.032,61.425,16.032
	c30.721,0,30.721-16.032,61.441-16.032c0.821,0,1.537,0.054,2.315,0.077c0.202-0.945,0.453-1.852,0.789-2.669l8.635-16.223
	c4.176-7.846,12.34-12.749,21.228-12.749H400.29z"/>
<path style="fill:#826469;" d="M376.242,7.5H135.758c-8.854,0-16.032,7.178-16.032,16.032v16.032
	c0,8.854,7.178,16.032,16.032,16.032h240.484c8.854,0,16.032-7.178,16.032-16.032V23.532C392.274,14.678,385.096,7.5,376.242,7.5z"
	/>
<g>
	<path style="fill:#6E555E;" d="M191.871,39.565V23.532c0-8.855,7.178-16.032,16.032-16.032h-72.145
		c-8.854,0-16.032,7.178-16.032,16.032v16.032c0,8.854,7.178,16.032,16.032,16.032h72.145
		C199.049,55.597,191.871,48.419,191.871,39.565z"/>
	<path style="fill:#6E555E;" d="M151.79,191.871c-8.854,0-16.032,7.178-16.032,16.032v184.371c0,8.854,7.178,16.032,16.032,16.032
		h24.048V191.871H151.79z"/>
	<circle style="fill:#6E555E;" cx="256" cy="280.05" r="24.05"/>
</g>
<ellipse style="fill:#FFDC64;" cx="256" cy="324.14" rx="24.05" ry="36.07"/>
<path d="M445.674,106.406l-51.56-51.56c3.524-4.115,5.66-9.452,5.66-15.282V23.532C399.774,10.557,389.218,0,376.242,0H135.758
	c-12.976,0-23.533,10.557-23.533,23.532v16.032c0,5.83,2.136,11.167,5.66,15.282l-51.56,51.56c-2.145,2.145-2.787,5.371-1.626,8.173
	c1.161,2.803,3.896,4.63,6.929,4.63c13.517,0,19.877,3.32,27.242,7.165c0.777,0.405,1.568,0.816,2.372,1.227l-7.145,7.146
	c-8.987,8.987-13.937,20.936-13.937,33.645v304.043c0,21.816,17.749,39.564,39.564,39.564h272.549
	c21.816,0,39.564-17.749,39.564-39.564V168.392c0-12.709-4.949-24.658-13.937-33.645l-7.157-7.157
	c0.796-0.407,1.581-0.814,2.35-1.215c7.374-3.845,13.742-7.166,27.275-7.166c3.033,0,5.768-1.827,6.929-4.63
	C448.461,111.777,447.819,108.551,445.674,106.406z M407.296,145.354c6.154,6.154,9.543,14.336,9.543,23.038v304.043
	c0,13.545-11.02,24.564-24.564,24.564H119.726c-13.545,0-24.564-11.02-24.564-24.564V168.392c0-8.702,3.389-16.884,9.543-23.038
	l11.873-11.874c4.571,1.075,9.929,1.761,16.477,1.761c17.2,0,26.227-4.711,34.19-8.867c7.367-3.845,13.73-7.165,27.25-7.165
	c13.527,0,19.892,3.321,27.263,7.166c7.966,4.156,16.996,8.867,34.2,8.867c17.2,0,26.227-4.711,34.191-8.867
	c7.368-3.845,13.73-7.165,27.252-7.165c13.533,0,19.901,3.321,27.274,7.166c7.969,4.156,17.001,8.866,34.211,8.866
	c6.572,0,11.945-0.69,16.528-1.771L407.296,145.354z M406.161,113.076c-7.374,3.845-13.742,7.166-27.275,7.166
	s-19.901-3.321-27.275-7.166c-7.969-4.156-17.001-8.866-34.21-8.866c-17.2,0-26.227,4.711-34.191,8.867
	c-7.368,3.845-13.73,7.165-27.252,7.165c-13.527,0-19.892-3.321-27.262-7.166c-7.967-4.156-16.996-8.867-34.201-8.867
	c-17.199,0-26.226,4.711-34.19,8.867c-7.367,3.845-13.73,7.165-27.251,7.165c-13.517,0-19.877-3.32-27.242-7.165
	c-4.955-2.586-10.32-5.387-17.81-7.135l43.278-43.278c1.451,0.281,2.946,0.433,4.478,0.433h192.387c4.142,0,7.5-3.358,7.5-7.5
	s-3.358-7.5-7.5-7.5H135.758c-4.705,0-8.533-3.828-8.533-8.532V23.532c0-4.705,3.828-8.532,8.533-8.532h240.483
	c4.705,0,8.533,3.828,8.533,8.532v16.032c0,4.705-3.828,8.532-8.533,8.532h-16.035c-4.142,0-7.5,3.358-7.5,7.5s3.358,7.5,7.5,7.5
	h16.035c1.531,0,3.027-0.152,4.478-0.433l43.276,43.276C416.494,107.687,411.121,110.489,406.161,113.076z"/>
<path d="M360.209,184.371h-16.03c-4.142,0-7.5,3.358-7.5,7.5s3.358,7.5,7.5,7.5h16.03c4.705,0,8.532,3.828,8.532,8.532v184.371
	c0,4.705-3.828,8.532-8.532,8.532H151.791c-4.705,0-8.532-3.828-8.532-8.532V207.903c0-4.705,3.828-8.532,8.532-8.532h160.323
	c4.142,0,7.5-3.358,7.5-7.5s-3.358-7.5-7.5-7.5H151.791c-12.976,0-23.532,10.557-23.532,23.532v184.371
	c0,12.976,10.557,23.532,23.532,23.532H360.21c12.976,0,23.532-10.557,23.532-23.532V207.903
	C383.742,194.928,373.185,184.371,360.209,184.371z"/>
<path d="M287.068,274.604c-1.069-6.115-3.899-11.629-7.954-15.997l7.642-15.285c1.853-3.705,0.351-8.21-3.354-10.062
	c-3.705-1.853-8.209-0.351-10.062,3.354l-6.844,13.688c-3.286-1.163-6.817-1.802-10.496-1.802s-7.21,0.639-10.496,1.802
	l-6.844-13.688c-1.853-3.705-6.356-5.207-10.062-3.354c-3.705,1.852-5.207,6.357-3.354,10.062l7.642,15.285
	c-4.055,4.368-6.886,9.882-7.954,15.997c-4.127,1.011-7.914,3.131-10.995,6.213l-22.673,22.673
	c-4.445,4.445-6.893,10.354-6.893,16.64c0,6.286,2.448,12.195,6.892,16.64c4.445,4.445,10.354,6.893,16.64,6.893
	s12.195-2.448,16.64-6.893l1.008-1.008c3.597,18.614,15.685,31.949,30.449,31.949s26.851-13.336,30.449-31.949l1.008,1.008
	c4.445,4.445,10.354,6.893,16.64,6.893s12.195-2.448,16.64-6.892c4.445-4.445,6.893-10.354,6.893-16.64
	c0-6.286-2.448-12.195-6.893-16.64l-22.673-22.673C294.982,277.735,291.195,275.615,287.068,274.604z M256,295.564
	c6.982,0,12.448,7.72,14.99,17.064h-29.98C243.552,303.284,249.018,295.564,256,295.564z M272.548,280.048
	c0,2.049-0.378,4.056-1.098,5.932c-4.542-3.455-9.799-5.416-15.45-5.416s-10.907,1.96-15.449,5.415
	c-0.72-1.876-1.099-3.883-1.099-5.931c0-9.125,7.423-16.548,16.548-16.548S272.548,270.923,272.548,280.048z M207.903,328.661
	c-2.279,0-4.421-0.887-6.033-2.5c-1.612-1.611-2.499-3.754-2.499-6.033s0.888-4.421,2.499-6.033l22.673-22.673
	c0.482-0.482,1.016-0.891,1.583-1.239c0.995,2.934,2.423,5.714,4.245,8.252c-2.518,4.83-4.332,10.428-5.244,16.536l-11.19,11.19
	C212.325,327.774,210.182,328.661,207.903,328.661z M256,352.709c-8.918,0-15.36-12.592-16.398-25.081h32.796
	C271.36,340.118,264.918,352.709,256,352.709z M312.629,320.129c0,2.279-0.887,4.421-2.5,6.033
	c-1.611,1.612-3.753,2.499-6.033,2.499c-2.279,0-4.421-0.887-6.033-2.499l-11.19-11.19c-0.912-6.109-2.726-11.706-5.244-16.536
	c1.823-2.538,3.251-5.318,4.246-8.251c0.566,0.348,1.1,0.756,1.582,1.238l22.673,22.673
	C311.741,315.708,312.629,317.85,312.629,320.129z"/>
<path d="M376.242,464.936H183.854c-4.142,0-7.5,3.358-7.5,7.5s3.358,7.5,7.5,7.5h192.387c4.142,0,7.5-3.358,7.5-7.5
	S380.384,464.936,376.242,464.936z"/>
<path d="M151.793,464.936h-16.035c-4.142,0-7.5,3.358-7.5,7.5s3.358,7.5,7.5,7.5h16.035c4.142,0,7.5-3.358,7.5-7.5
	S155.935,464.936,151.793,464.936z"/>
<g>
</g>
<g>
</g>
<g>
</g>
<g>
</g>
<g>
</g>
<g>
</g>
<g>
</g>
<g>
</g>
<g>
</g>
<g>
</g>
<g>
</g>
<g>
</g>
<g>
</g>
<g>
</g>
<g>
</g>
</svg>
