<svg width="1024" height="786" viewBox="0 0 1024 786" fill="none" xmlns="http://www.w3.org/2000/svg">
<g id="bike">
<g id="background">
<path id="Vector" d="M175.73 116.43C170.25 123.08 168.14 132.43 165.78 141.22C146.78 212.06 99.96 269.04 46.64 309.74C24.06 326.98 -3.42999 350.1 1.51001 381.01C4.17001 397.61 15.84 409.83 24.51 423.35C42.7 451.66 48.6 490.14 39.93 524.03C30.07 562.59 2.51001 598.57 11.04 637.56C16.3 661.56 34.16 678.64 51.33 693.32C78.1167 716.207 105.757 737.647 134.25 757.64C153.35 771.04 173.67 784.08 195.93 785.78C215.53 787.28 234.73 779.83 253.34 772.48C269.6 766.05 286.27 759.36 299.4 746.48C307.97 738.07 314.8 727.22 324.32 720.34C346.68 704.18 375.4 714.42 401.04 721.34C461.54 737.58 526.29 731.65 583.86 704.6C672.17 663.1 739.48 575.95 825.86 529.19C863 509.08 903.4 496.6 937.79 470.7C957.165 455.953 973.815 437.936 986.99 417.46C1012.99 377.35 1027.05 326.21 1022.99 276.15C1018.93 226.09 996.18 177.85 960.45 149.59C922.2 119.34 873.89 113.69 830.37 95.53C785.43 76.77 745.45 44.53 700.94 24.4C664.924 8.15666 625.728 0.182855 586.228 1.06363C546.728 1.9444 507.926 11.6574 472.67 29.49C424.23 53.99 375.13 111.15 321.18 115.49C282.74 118.49 205.75 80.01 175.73 116.43Z" fill="url(#paint0_linear)"/>
</g>
<g id="left-wheel">
<path id="Vector_2" d="M221.23 717.99L214.96 620.05L214.83 619.84L208.51 622.04L179.43 706.89L133.18 674.1L206.85 620.69L206.92 620.48L207.34 620.33L212.09 616.88L134.85 573.57L115.93 594.37L118.93 613.87L207.75 615.49V617.49L117.27 615.87L113.85 593.73L139.75 565.27L178.5 520.07L179.19 521.94L187.39 512.94L217.85 518.4V517.19L219.85 517.25V518.76L265.21 526.88L222.92 611.49L216.75 615.96V616.46V617.02L314.55 582.94L302.94 674.15L219.94 621.28L217.02 619.64L265.96 698.52L221.23 717.99ZM217.23 623.65L223.08 715.03L263.13 697.65L217.23 623.65ZM136.65 674.08L178.44 703.71L205.78 623.97L136.65 674.08ZM218.97 618.42L221.06 619.59L301.41 670.79L312.21 585.92L218.97 618.42ZM211.87 611.22L214.38 615.27L214.82 614.95L217.82 520.42L188.08 515.1L179.92 524.1L211.87 611.22ZM136.45 572.16L211.29 614.16L209.99 612.03L178.41 525.76L141.22 566.63L136.45 572.16ZM219.85 520.77L216.85 613.49L221.37 610.21L262.28 528.39L219.85 520.77Z" fill="#535461"/>
<path id="Vector_3" d="M330.92 590.95C326.909 573.131 318.79 556.495 307.21 542.37C302.911 537.121 298.171 532.25 293.04 527.81C273.314 510.779 248.491 500.779 222.467 499.381C196.443 497.983 170.692 505.265 149.254 520.085C127.816 534.904 111.906 556.422 104.02 581.262C96.1343 606.102 96.7192 632.857 105.683 657.328C114.647 681.799 131.482 702.601 153.547 716.47C175.612 730.339 201.657 736.488 227.595 733.954C253.533 731.42 277.895 720.345 296.858 702.468C315.822 684.591 328.312 660.923 332.37 635.18C333.314 629.119 333.789 622.994 333.79 616.86C333.797 608.144 332.834 599.454 330.92 590.95ZM215.73 705.3C197.498 705.281 179.714 699.647 164.797 689.164C149.879 678.682 138.552 663.859 132.356 646.712C126.16 629.565 125.395 610.926 130.165 593.329C134.935 575.732 145.009 560.031 159.018 548.361C173.026 536.692 190.288 529.619 208.457 528.106C226.627 526.593 244.821 530.712 260.567 539.904C276.312 549.096 288.845 562.914 296.46 579.48C304.076 596.045 306.405 614.554 303.13 632.49C299.38 652.933 288.58 671.414 272.611 684.718C256.642 698.021 236.514 705.304 215.73 705.3V705.3Z" fill="#535461"/>
<path id="Vector_4" d="M215.73 629.27C222.805 629.27 228.54 623.535 228.54 616.46C228.54 609.385 222.805 603.65 215.73 603.65C208.655 603.65 202.92 609.385 202.92 616.46C202.92 623.535 208.655 629.27 215.73 629.27Z" fill="#535461"/>
</g>
<g id="right-wheel">
<path id="Vector_5" d="M647.42 718.39L641.16 620.49L641.03 620.28L634.71 622.48L605.62 707.29L559.37 674.49L633.06 621.08L633.13 620.87L633.55 620.72L638.3 617.27L561.06 573.96L542.13 594.76L545.13 614.26L633.93 615.84V617.84L543.45 616.22L540.05 594.11L565.94 565.66L604.66 520.49L605.35 522.36L613.55 513.36L644.09 518.83V517.62L646.09 517.68V519.19L691.45 527.31L649.12 611.96L642.95 616.43V616.93V617.49L740.76 583.41L729.15 674.62L646.15 621.75L643.23 620.11L692.17 699L647.42 718.39ZM643.42 624.05L649.27 715.43L689.32 698.05L643.42 624.05ZM562.85 674.49L604.64 704.12L631.98 624.38L562.85 674.49ZM645.17 618.83L647.26 620L727.61 671.2L738.41 586.33L645.17 618.83ZM638.07 611.63L640.58 615.68L641.02 615.36L644.02 520.83L614.28 515.49L606.12 524.49L638.07 611.63ZM562.68 572.58L637.52 614.58L636.22 612.45L604.64 526.18L567.44 567.06L562.68 572.58ZM646.05 521.19L643.05 613.88L647.57 610.6L688.48 528.78L646.05 521.19Z" fill="#535461"/>
<path id="Vector_6" d="M642.33 499.61C631.716 499.598 621.15 501.024 610.92 503.85C605.644 505.305 600.477 507.133 595.46 509.32C568.73 520.907 547.247 541.997 535.167 568.508C523.087 595.019 521.269 625.069 530.065 652.843C538.86 680.618 557.644 704.143 582.782 718.869C607.92 733.594 637.627 738.473 666.155 732.562C694.682 726.65 720.004 710.369 737.221 686.867C754.438 663.365 762.327 634.312 759.362 605.33C756.396 576.348 742.787 549.495 721.168 529.966C699.548 510.438 671.454 499.622 642.32 499.61H642.33ZM641.93 705.7C621.649 705.692 601.981 698.746 586.192 686.017C570.404 673.288 559.445 655.541 555.135 635.723C550.825 615.905 553.424 595.209 562.501 577.073C571.577 558.936 586.584 544.45 605.03 536.02C609.722 533.872 614.594 532.142 619.59 530.85C631.802 527.68 644.549 527.147 656.984 529.287C669.418 531.427 681.253 536.191 691.703 543.261C702.153 550.332 710.977 559.547 717.588 570.293C724.199 581.039 728.446 593.069 730.046 605.585C731.646 618.1 730.562 630.812 726.866 642.875C723.17 654.939 716.948 666.077 708.613 675.548C700.277 685.02 690.02 692.608 678.524 697.806C667.028 703.005 654.557 705.696 641.94 705.7H641.93Z" fill="#535461"/>
<path id="Vector_7" d="M641.93 629.67C649.005 629.67 654.74 623.935 654.74 616.86C654.74 609.785 649.005 604.05 641.93 604.05C634.855 604.05 629.12 609.785 629.12 616.86C629.12 623.935 634.855 629.67 641.93 629.67Z" fill="#535461"/>
</g>
<g id="man-bike">
<path id="Vector_8" d="M353 555.303L310.293 513.159L296.947 526.683L339.654 568.827L353 555.303Z" fill="#B71939"/>
<path id="Vector_9" d="M320.48 492.99C320.48 492.99 345.27 479.91 354.85 471.49C360.617 466.444 366.818 461.917 373.38 457.96L404.48 439.03L469.48 434.03L472.48 445.03C472.48 445.03 477.48 461.03 427.48 475.03C377.48 489.03 352.48 511.03 352.48 511.03C352.48 511.03 320.48 521.99 320.48 492.99Z" fill="#DB8B8B"/>
<path id="Vector_10" opacity="0.1" d="M355.13 508.86C353.36 510.21 352.48 510.99 352.48 510.99C352.48 510.99 320.48 521.99 320.48 492.99C320.48 492.99 322.03 492.17 324.48 490.8C326.955 494.831 330.423 498.16 334.551 500.469C338.679 502.778 343.33 503.99 348.06 503.99H351.45L355.13 508.86Z" fill="black"/>
<path id="Vector_11" opacity="0.05" d="M471.54 450.55C468.76 456.44 459.17 466.12 427.48 474.99C386.87 486.36 362.75 502.99 355.13 508.86C353.36 510.21 352.48 510.99 352.48 510.99C352.48 510.99 320.48 521.99 320.48 492.99C320.48 492.99 322.03 492.17 324.48 490.8C331.91 486.73 347.64 477.8 354.82 471.45C360.586 466.403 366.787 461.875 373.35 457.92L404.45 438.99L416.03 438.1L469.45 433.99L472.45 444.99C472.45 444.99 473.15 447.14 471.54 450.55Z" fill="black"/>
<path id="Vector_12" d="M320.98 486.49L294.48 503.99L372.08 568.99C372.08 568.99 383.48 561.99 377.48 553.99C377.48 553.99 357.48 536.99 356.48 512.99L350.48 504.99H347.09C341.358 504.991 335.767 503.211 331.089 499.897C326.412 496.583 322.88 491.898 320.98 486.49V486.49Z" fill="#ABB1D1"/>
<path id="Vector_13" opacity="0.1" d="M471.54 450.55C455.54 442.82 416.48 441.99 416.48 441.99L416.06 438.1L469.48 433.99L472.48 444.99C472.48 444.99 473.15 447.14 471.54 450.55Z" fill="black"/>
<path id="Vector_14" d="M416.48 439.99C416.48 439.99 463.48 440.99 475.48 450.99L469.48 329.99H404.48L416.48 439.99Z" fill="#ABB1D1"/>
<path id="Vector_15" opacity="0.05" d="M416.48 439.49C416.48 439.49 463.48 440.49 475.48 450.49L469.48 329.49H404.48L416.48 439.49Z" fill="black"/>
<path id="Vector_16" d="M454.24 365.95C454.24 365.95 571.89 361.95 574.29 377.16C576.69 392.37 456.64 385.96 456.64 385.96C456.64 385.96 447.04 376.35 454.24 365.95Z" fill="#535461"/>
<path id="Vector_17" opacity="0.05" d="M454.24 365.95C454.24 365.95 571.89 361.95 574.29 377.16C576.69 392.37 456.64 385.96 456.64 385.96C456.64 385.96 447.04 376.35 454.24 365.95Z" fill="black"/>
<path id="Vector_18" d="M359 426.78H338.19V607.66H359V426.78Z" fill="#DF2147"/>
<path id="Vector_19" opacity="0.1" d="M359 426.77V440.7C352.08 441.6 345 442.17 338.19 442.39V426.77H359Z" fill="black"/>
<path id="Vector_20" d="M357.44 411.78C354.52 411.554 351.616 411.164 348.74 410.61C337.46 408.45 309.02 403.92 301.37 411.61C291.77 421.21 294.97 438.02 320.58 440.42C346.19 442.82 390.21 436.42 399.02 426.81C399.02 426.77 383.09 413.75 357.44 411.78Z" fill="#535461"/>
<path id="Vector_21" d="M353.4 476.4L571.9 408.37L579.1 425.18L355 502.01L353.4 476.4Z" fill="#DF2147"/>
<path id="Vector_22" d="M418.23 583.65L575.9 428.38L584.7 441.18L434.23 598.05L418.23 583.65Z" fill="#DF2147"/>
<path id="Vector_23" opacity="0.1" d="M619.58 530.85C614.584 532.142 609.712 533.872 605.02 536.02L595.46 509.31C600.477 507.123 605.644 505.295 610.92 503.84L619.58 530.85Z" fill="black"/>
<path id="Vector_24" d="M646.33 609.26L635.13 615.66L556.99 397.33L553.49 387.56L571.9 377.15L576.51 391.53L646.33 609.26Z" fill="#DF2147"/>
<path id="Vector_25" opacity="0.1" d="M576.51 391.53L556.99 397.33L553.49 387.56L571.9 377.15L576.51 391.53Z" fill="black"/>
<path id="Vector_26" d="M457.44 408.37L567.09 370.75C567.09 370.75 586.3 373.15 579.09 389.16L468.65 421.97C468.65 421.97 451.85 423.57 457.44 408.37Z" fill="#535461"/>
<path id="Vector_27" opacity="0.1" d="M333.79 616.86C333.789 622.994 333.314 629.119 332.37 635.18C322.77 634.49 312.85 633.49 303.13 632.49C305.289 620.599 305.021 608.394 302.34 596.61C311.81 594.61 321.48 592.7 330.92 590.97C332.833 599.467 333.795 608.15 333.79 616.86V616.86Z" fill="black"/>
<path id="Vector_28" opacity="0.1" d="M359 586.38V607.65H338.19V589.65C345.39 588.4 352.39 587.29 359 586.38Z" fill="black"/>
<path id="Vector_29" d="M224.54 616.49C224.54 616.49 392.62 572.49 406.22 589.28C419.82 606.07 434.23 628.49 391.85 636.49C349.47 644.49 221.37 622.88 221.37 622.88L224.54 616.49Z" fill="#DF2147"/>
<path id="Vector_30" opacity="0.1" d="M307.21 542.37L285.85 561.92C282.067 557.064 277.791 552.614 273.09 548.64L293.03 527.81C298.164 532.249 302.908 537.12 307.21 542.37V542.37Z" fill="black"/>
<path id="Vector_31" d="M218.94 607.66L344.59 476.4L348.6 506.81L225.34 619.66L218.94 607.66Z" fill="#DF2147"/>
<path id="Vector_32" opacity="0.1" d="M217.34 629.27C224.415 629.27 230.15 623.535 230.15 616.46C230.15 609.385 224.415 603.65 217.34 603.65C210.265 603.65 204.53 609.385 204.53 616.46C204.53 623.535 210.265 629.27 217.34 629.27Z" fill="black"/>
<path id="Vector_33" opacity="0.1" d="M641.13 628.07C648.205 628.07 653.94 622.335 653.94 615.26C653.94 608.185 648.205 602.45 641.13 602.45C634.055 602.45 628.32 608.185 628.32 615.26C628.32 622.335 634.055 628.07 641.13 628.07Z" fill="black"/>
<path id="Vector_34" opacity="0.1" d="M414.22 629.27C428.364 629.27 439.83 617.804 439.83 603.66C439.83 589.516 428.364 578.05 414.22 578.05C400.076 578.05 388.61 589.516 388.61 603.66C388.61 617.804 400.076 629.27 414.22 629.27Z" fill="black"/>
<path id="Vector_35" d="M415.83 629.27C429.974 629.27 441.44 617.804 441.44 603.66C441.44 589.516 429.974 578.05 415.83 578.05C401.686 578.05 390.22 589.516 390.22 603.66C390.22 617.804 401.686 629.27 415.83 629.27Z" fill="#535461"/>
<path id="Vector_36" d="M408.992 601.736L408.984 601.742C405.977 603.991 405.362 608.253 407.611 611.26L427.937 638.44C430.186 641.448 434.448 642.063 437.455 639.814L437.463 639.808C440.471 637.559 441.085 633.297 438.836 630.29L418.51 603.109C416.261 600.102 412 599.487 408.992 601.736Z" fill="#6C63FF"/>
<path id="Vector_37" d="M531.48 247.99L529.1 278.1C528.826 281.914 528.876 285.744 529.25 289.55C529.56 292.92 529.25 298.82 525.95 307.82C521.713 319.317 519.523 331.467 519.48 343.72V377.99L496.48 373.99C496.48 373.99 497.48 325.99 493.48 317.99C489.48 309.99 496.48 238.99 496.48 238.99L531.48 247.99Z" fill="#DB8B8B"/>
<path id="Vector_38" opacity="0.05" d="M530.3 262.91L529.1 278.1C528.83 281.911 528.883 285.738 529.26 289.54C529.57 292.91 529.26 298.81 525.96 307.82C521.723 319.317 519.533 331.467 519.49 343.72V377.99L496.49 373.99C496.49 373.99 497.49 325.99 493.49 317.99C490.66 312.32 493.34 275.05 495.15 253.78C495.9 245.03 496.49 238.99 496.49 238.99L531.49 247.99L530.3 262.91Z" fill="black"/>
<path id="Vector_39" d="M417.5 477.99L408.85 527.19C407.759 533.759 406.086 540.218 403.85 546.49C398.78 560.35 402.02 579.78 404.48 590.38C405.57 595.06 406.48 598.02 406.48 598.02L380.48 612.02L372.48 606.02V602.02L371.48 513.02C365.48 499.02 367.48 478.02 371.48 470.02C372.617 467.392 373.417 464.63 373.86 461.8C375.86 451.08 376.48 436.02 376.48 436.02C376.48 436.02 392.48 409.02 411.48 427.02C418.48 433.65 421.14 442.32 421.7 450.62C422.68 464.83 417.5 477.99 417.5 477.99Z" fill="#DB8B8B"/>
<path id="Vector_40" opacity="0.1" d="M421.7 450.59C407.83 458.83 383.7 461.16 373.86 461.77C375.86 451.05 376.48 435.99 376.48 435.99C376.48 435.99 392.48 408.99 411.48 426.99C418.48 433.62 421.14 442.29 421.7 450.59Z" fill="black"/>
<path id="Vector_41" d="M455.48 425.99C444.846 431.653 434.797 438.352 425.48 445.99C409.48 458.99 369.48 459.99 369.48 459.99V444.99C370.48 426.99 353.48 406.99 330.48 350.99C315.79 315.23 319.86 294.99 324.72 284.99C327.48 279.34 330.48 276.99 330.48 276.99L455.48 300.99L459.95 314.39L469.48 342.99C469.48 342.99 434.48 344.99 428.48 347.99C422.48 350.99 426.48 377.99 426.48 377.99C420.48 405.99 455.48 425.99 455.48 425.99Z" fill="#ABB1D1"/>
<path id="Vector_42" opacity="0.1" d="M531.48 247.99L530.3 262.91C512.9 267.91 500.48 251.99 500.48 251.99C498.665 252.477 496.882 253.074 495.14 253.78C495.89 245.03 496.48 238.99 496.48 238.99L531.48 247.99Z" fill="black"/>
<path id="Vector_43" opacity="0.1" d="M459.95 314.39C459.48 319.06 459.48 321.99 459.48 321.99C459.48 321.99 436.48 340.99 397.48 311.99C358.48 282.99 323.48 290.99 323.48 290.99C323.48 290.99 323.89 288.67 324.72 284.99C327.48 279.34 330.48 276.99 330.48 276.99L455.48 300.99L459.95 314.39Z" fill="black"/>
<path id="Vector_44" d="M544.96 208.94C542.35 229.29 541.48 254.94 541.48 254.94C518.48 272.94 500.48 249.94 500.48 249.94C478.76 255.77 468.55 274.78 463.74 291.37C461.164 300.344 459.732 309.607 459.48 318.94C459.48 318.94 453.4 323.94 442.2 324.94C431.61 325.83 416.43 323.07 397.48 308.94C358.48 279.94 323.48 287.94 323.48 287.94C323.48 287.94 330.48 247.94 346.48 235.94C362.48 223.94 374.48 208.94 394.48 162.94C414.48 116.94 455.48 127.94 455.48 127.94C455.48 127.94 457.48 118.94 494.48 127.94C503.492 130.302 511.834 134.721 518.85 140.85C538.64 157.49 548.24 183.3 544.96 208.94Z" fill="white"/>
<path id="Vector_45" d="M507.85 150.49C507.8 151.82 507.69 153.3 507.51 154.95C505.51 172.95 503.51 170.95 481.51 174.95C467.83 177.44 460.72 166.01 457.3 157.01C456.062 153.75 455.128 150.382 454.51 146.95L502.51 138.95C502.51 138.95 508.26 137.34 507.85 150.49Z" fill="#DB8B8B"/>
<path id="Vector_46" opacity="0.05" d="M463.74 291.42C461.164 300.394 459.732 309.657 459.48 318.99C459.48 318.99 453.4 323.99 442.2 324.99C441.884 324.353 441.643 323.682 441.48 322.99C439.48 313.99 424.48 297.99 424.48 297.99C414.48 288.99 412.48 272.99 412.48 272.99L395.98 224.49L390.48 219.99C390.48 219.99 413.48 201.99 433.48 216.99C453.48 231.99 447.48 263.99 447.48 263.99L451.48 274.99C455.63 278.49 459.85 284.66 463.74 291.42Z" fill="black"/>
<path id="Vector_47" d="M393.48 218.99L415.48 271.99C415.48 271.99 417.48 287.99 427.48 296.99C427.48 296.99 442.48 312.99 444.48 321.99C446.48 330.99 474.48 354.99 474.48 354.99C474.48 354.99 500.48 378.99 502.48 387.99C502.48 387.99 526.48 394.99 523.48 408.99C523.48 408.99 541.48 390.99 523.48 373.99C505.48 356.99 481.48 321.99 481.48 321.99C481.48 321.99 467.48 284.99 454.48 273.99L450.48 262.99C450.48 262.99 456.48 230.99 436.48 215.99C416.48 200.99 393.48 218.99 393.48 218.99Z" fill="#DB8B8B"/>
<path id="Vector_48" opacity="0.1" d="M406.48 597.99L380.48 611.99L372.48 605.99V601.99C381.464 601.352 390.193 598.718 398.03 594.28C400.43 592.92 402.69 591.58 404.5 590.4C405.55 595.03 406.48 597.99 406.48 597.99Z" fill="black"/>
<path id="Vector_49" opacity="0.1" d="M436.48 176.99L450.48 231.99C450.48 231.99 407.48 238.99 398.48 231.99C389.48 224.99 372.48 222.99 372.48 222.99C372.48 222.99 390.48 170.99 400.48 164.99C410.48 158.99 436.48 176.99 436.48 176.99Z" fill="black"/>
<path id="Vector_50" d="M436.48 174.99L450.48 229.99C450.48 229.99 407.48 236.99 398.48 229.99C389.48 222.99 372.48 220.99 372.48 220.99C372.48 220.99 390.48 168.99 400.48 162.99C410.48 156.99 436.48 174.99 436.48 174.99Z" fill="white"/>
<path id="Vector_51" opacity="0.1" d="M507.85 149.49C505.049 153.356 501.487 156.609 497.383 159.047C493.278 161.485 488.718 163.058 483.983 163.669C479.248 164.28 474.439 163.915 469.85 162.598C465.261 161.281 460.99 159.039 457.3 156.01C456.062 152.75 455.128 149.382 454.51 145.95L502.51 137.95C502.51 137.95 508.26 136.34 507.85 149.49Z" fill="black"/>
<path id="Vector_52" d="M513.944 126.577C513.944 135.859 510.256 144.762 503.693 151.325C497.129 157.889 488.226 161.577 478.944 161.577C469.661 161.577 460.759 157.889 454.195 151.325C447.631 144.762 443.944 135.859 443.944 126.577C443.944 125.997 443.944 125.417 443.944 124.837C444.175 115.554 448.083 106.743 454.81 100.343C461.537 93.9422 470.531 90.476 479.814 90.7067C489.096 90.9375 497.907 94.8462 504.308 101.573C510.708 108.3 514.175 117.294 513.944 126.577V126.577Z" fill="#DB8B8B"/>
<path id="Vector_53" opacity="0.1" d="M514.48 127.99C514.483 131.216 514.039 134.426 513.16 137.53C510.455 138.12 507.633 137.861 505.08 136.79C501.34 135.32 498.13 132.79 494.54 130.97C484.43 125.85 472.4 126.86 461.2 128.55C455.64 129.39 449.33 130.17 444.96 126.63C444.81 126.511 444.666 126.385 444.53 126.25C444.761 116.967 448.67 108.157 455.396 101.756C462.123 95.3555 471.117 91.8893 480.4 92.12C489.683 92.3508 498.493 96.2595 504.894 102.986C511.295 109.713 514.761 118.707 514.53 127.99H514.48Z" fill="black"/>
<path id="Vector_54" opacity="0.05" d="M350.98 235.49C350.98 235.49 376.98 242.49 384.98 260.49C392.98 278.49 414.62 281.78 414.62 281.78" fill="black"/>
<path id="Vector_55" d="M448.98 631.49H388.98V650.49H448.98V631.49Z" fill="#B71939"/>
<path id="Vector_56" d="M397.99 596.23C403.36 593.23 408.07 590.23 408.48 588.99C408.48 588.99 422.03 603.29 434.1 607.73C438.159 609.229 442.044 611.16 445.69 613.49C450.47 616.49 457.29 620.02 463.48 620.02C463.48 620.02 477.48 632.02 450.48 634.02C423.48 636.02 360.48 629.02 360.48 629.02L364.48 604.02C376.167 604.705 387.804 602 397.99 596.23Z" fill="#ABB1D1"/>
</g>
<g id="hat">
<path id="Vector_57" d="M418.624 104.927C420.754 111.607 430.984 111.817 436.234 116.737C438.964 119.297 440.234 123.077 443.234 125.357C447.404 128.537 453.424 127.837 458.734 127.077C469.424 125.557 480.904 124.647 490.544 129.257C493.964 130.887 497.034 133.167 500.604 134.497C504.174 135.827 508.604 135.987 511.504 133.627C513.824 131.737 514.674 128.627 516.774 126.547C518.404 124.907 520.674 123.987 522.534 122.547C526.614 119.467 528.374 114.447 529.534 109.647C531.934 99.7667 532.624 89.1167 528.534 79.7467C524.444 70.3767 514.604 62.7467 503.864 63.2367C500.574 63.3867 497.364 64.2367 494.084 64.5967C485.534 65.4667 477.084 62.5967 468.504 62.1067C466.015 61.8039 463.49 62.1483 461.174 63.1067C459.427 64.0775 457.92 65.4273 456.764 67.0567C452.836 72.2021 450.146 78.1836 448.904 84.5367C447.904 89.3267 447.854 93.6667 441.984 94.4067C435.314 95.2867 414.114 90.7967 418.624 104.927Z" fill="white"/>
</g>
</g>
<defs>
<linearGradient id="paint0_linear" x1="56" y1="770.5" x2="586.601" y2="-364.271" gradientUnits="userSpaceOnUse">
<stop stop-color="#D0D0D0"/>
<stop offset="1" stop-color="#F8F8F8"/>
</linearGradient>
</defs>
</svg>
